<svg width="24" height="24" viewBox="0 0 24 24" fill="none" xmlns="http://www.w3.org/2000/svg">
<g clip-path="url(#clip0_416_43)">
<rect width="24" height="24" rx="4" fill="#EE5339"/>
<path d="M19.332 2.75L19.2402 3.06934C18.511 5.59849 17.7722 7.38071 17.0107 8.37305L16.8584 8.56055L16.2188 9.2998L16.8555 10.0361L16.9443 10.1387L16.9072 10.2695C16.1101 13.0365 13.714 15.8301 10.4805 16.2979C9.50625 16.4387 8.72009 16.8924 8.11133 17.667C7.49758 18.448 7.05567 19.5668 6.80078 21.043L6.76465 21.25H4.71094L4.75293 20.9648C5.14058 18.2735 5.72688 13.7297 7.69336 9.86133C8.67851 7.92342 10.0157 6.14388 11.8564 4.84863C13.6999 3.55154 16.0354 2.75 19 2.75H19.332ZM16.2695 5.33398C12.4365 6.19059 9.99077 8.97416 8.4541 13.4531L8.30273 13.9092C8.20597 14.2075 8.11386 14.5084 8.02637 14.8105C8.67397 14.4009 9.40522 14.1324 10.2158 14.0156L10.5615 13.9521C12.2282 13.5786 13.709 12.2831 14.5234 10.6475L13.5 9.46484L13.3594 9.30176L13.5 9.13867L14.5986 7.86523L15.377 6.96289L15.4941 6.81543C15.7266 6.49918 15.9876 6.00671 16.2695 5.33398Z" fill="white" stroke="white" stroke-width="0.5"/>
</g>
<rect x="0.5" y="0.5" width="23" height="23" rx="3.5" stroke="white"/>
<defs>
<clipPath id="clip0_416_43">
<rect width="24" height="24" rx="4" fill="white"/>
</clipPath>
</defs>
</svg>
